<?xml version="1.0" encoding="UTF-8" standalone="no"?>
<svg
   xmlns:dc="http://purl.org/dc/elements/1.1/"
   xmlns:cc="http://creativecommons.org/ns#"
   xmlns:rdf="http://www.w3.org/1999/02/22-rdf-syntax-ns#"
   xmlns:svg="http://www.w3.org/2000/svg"
   xmlns="http://www.w3.org/2000/svg"
   xmlns:xlink="http://www.w3.org/1999/xlink"
   xmlns:sodipodi="http://sodipodi.sourceforge.net/DTD/sodipodi-0.dtd"
   xmlns:inkscape="http://www.inkscape.org/namespaces/inkscape"
   id="master-artboard"
   viewBox="0 0 380 380"
   version="1.1"
   x="0px"
   y="0px"
   width="380"
   height="380"
   sodipodi:docname="favicon.svg"
   inkscape:version="0.92.3 (2405546, 2018-03-11)">
  <metadata
     id="metadata3825">
    <rdf:RDF>
      <cc:Work
         rdf:about="">
        <dc:format>image/svg+xml</dc:format>
        <dc:type
           rdf:resource="http://purl.org/dc/dcmitype/StillImage" />
        <dc:title></dc:title>
      </cc:Work>
    </rdf:RDF>
  </metadata>
  <sodipodi:namedview
     pagecolor="#ffffff"
     bordercolor="#666666"
     borderopacity="1"
     objecttolerance="10"
     gridtolerance="10"
     guidetolerance="10"
     inkscape:pageopacity="0"
     inkscape:pageshadow="2"
     inkscape:window-width="1916"
     inkscape:window-height="1041"
     id="namedview3823"
     showgrid="false"
     inkscape:zoom="0.87857143"
     inkscape:cx="603.25203"
     inkscape:cy="292.97808"
     inkscape:window-x="0"
     inkscape:window-y="18"
     inkscape:window-maximized="0"
     inkscape:current-layer="g3917" />
  <defs
     id="defs3796">
    <linearGradient
       id="b"
       x1="20.586"
       y1="136.036"
       x2="27.972"
       y2="128.87"
       gradientUnits="userSpaceOnUse"
       gradientTransform="matrix(2.15218,0,0,2.15218,-33.282558,-21.571517)"
       xlink:href="#a" />
    <linearGradient
       id="a">
      <stop
         offset="0"
         stop-color="#ff8a1c"
         id="stop3791" />
      <stop
         offset="1"
         stop-color="#ff0e1c"
         id="stop3793" />
    </linearGradient>
    <linearGradient
       id="b-3"
       x1="20.586"
       y1="136.036"
       x2="27.972"
       y2="128.87"
       gradientUnits="userSpaceOnUse"
       gradientTransform="matrix(2.1521799,0,0,2.1521799,7.3321306,-15.821076)"
       xlink:href="#a" />
  </defs>
  <g
     transform="matrix(12.598425,0,0,12.598425,-74.982488,-502.82691)"
     id="g3820">
    <g
       id="g3917">
      <path
         transform="matrix(0.079375,0,0,0.079375,5.9517351,-7.7131144)"
         d="M 0,0 V 980 H 1400 V 0 Z m 394.99805,0.49804688 c 3.01448,0.11184638 6.23678,3.90928162 5.98047,10.24218712 h 0.002 c -0.11297,2.791225 -0.57145,5.591109 -0.33985,8.375 0.29996,3.605333 1.20342,7.136306 1.92383,10.681641 1.40728,6.925506 4.68968,20.101229 5.78907,26.796875 1.28619,7.833426 2.21555,20.738953 2.87695,28.580078 0.70051,5.094716 1.38709,10.190428 2.10156,15.283202 1.82955,13.04113 2.68827,16.1083 3.16797,29.2793 0.17898,4.91404 -0.11303,9.83586 -0.004,14.75195 0.0455,2.05066 1.08431,21.07357 1.21094,23.42969 0.10606,5.03897 0.26421,10.07739 0.31836,15.11719 0.11441,10.64942 -0.24088,19.64037 0.41992,30.29101 0.33414,5.38572 1.03539,10.74395 1.53125,16.11719 0.5526,5.98806 0.81631,9.05358 0.99414,11.14062 0.5826,-4.64713 1.15342,-9.29576 1.89063,-13.91992 2.62701,-16.47785 4.66836,-27.29666 9.81836,-42.92773 4.01651,-12.19073 6.4841,-16.60649 11.65234,-27.37305 2.38359,-2.81725 7.49013,-10.76773 12.60156,-11.07226 2.32338,-0.13843 4.64802,1.30338 6.71875,5.52539 2.27636,4.64125 -3.97003,6.60815 -6.46875,7.63086 -0.86976,0.94818 -1.71553,1.91775 -2.5957,2.85546 -4.82426,9.97787 -7.19862,14.21934 -10.95312,25.52149 -2.04598,6.15898 -3.85289,12.40697 -5.30469,18.73242 -5.2991,23.08796 -6.52679,46.7873 -11.44531,69.94141 -0.23312,0.95973 -0.41288,1.73833 -0.6211,2.61523 0.10631,0.75904 0.10033,0.78026 0.23242,1.70508 1.31889,9.23412 1.73994,8.7 2.11524,18.46289 0.40492,10.53339 -0.11634,13.41677 -0.8711,24.375 -1.47702,14.4991 -1.17297,29.06786 -1.36718,43.60937 -0.12439,9.31392 -0.64017,18.61956 -0.85547,27.93165 10e-4,2.0756 -0.0129,4.15101 0.002,6.22656 0.0146,2.01998 0.2504,4.04722 0.0859,6.06055 -0.18973,2.32331 -0.83361,4.58794 -1.14258,6.89843 -0.27812,2.07974 -0.69747,6.62642 -0.4375,8.95117 0.10251,0.91665 0.47005,1.78191 0.70508,2.67383 0.95444,3.95733 1.3351,7.99352 1.37695,12.05078 0.11619,11.26712 -11.58328,11.26593 -11.38281,0 0.058,-3.25859 -0.39342,-6.48223 -1.12109,-9.6582 -0.31972,-1.68944 -0.79898,-3.35639 -0.95899,-5.06836 -0.26643,-2.8506 0.24088,-8.36128 0.61914,-10.98047 0.22893,-1.58511 0.833,-3.11059 0.96094,-4.70703 0.33844,-4.22329 -0.56135,-8.4874 -0.0859,-12.71094 0.21517,-9.22538 0.72824,-18.44677 0.85156,-27.67382 0.19786,-14.80491 -0.0975,-29.63648 1.39454,-44.39844 0.45765,-6.42757 0.8188,-9.85811 0.9414,-13.93555 -0.40959,0.95063 -0.77808,1.83271 -1.25,2.88867 -1.90719,4.26749 -4.12077,8.40646 -6.56836,12.38867 -4.93779,8.03382 -11.87389,14.60692 -17.12109,22.41407 -6.28537,9.35178 -15.78723,3.41992 -9.65234,-6.03125 5.27739,-8.13019 12.53675,-14.82721 17.5957,-23.11328 2.14072,-3.50628 4.02162,-7.18065 5.66601,-10.94532 5.47243,-12.52851 6.13509,-16.54165 8.71094,-27.84961 -1.59577,-11.64412 0.48168,0.633 -2.99219,-18.3164 -2.49728,-19.99041 -1.15581,-7.93483 -3.07031,-28.85156 -0.51494,-5.62589 -1.22908,-11.23627 -1.57617,-16.875 -0.66686,-10.8338 -0.31136,-19.55594 -0.42383,-30.36133 -0.0512,-4.91524 -0.20327,-9.82969 -0.30469,-14.74414 -0.17113,-3.18488 -1.16767,-21.35653 -1.22656,-24.05469 -0.10121,-4.63784 0.19278,-9.27982 0.0332,-13.91602 -0.44092,-12.81066 -1.2919,-15.67405 -3.09179,-28.55664 -0.73898,-5.289149 -1.44571,-10.583534 -2.16797,-15.874997 -0.54373,-6.475969 -1.58365,-20.558144 -2.67188,-27.193359 -1.58707,-9.676817 -4.06851,-17.673405 -5.87695,-27.265625 -0.82633,-4.382938 -1.82857,-8.766586 -2.06055,-13.220703 -0.19079,-3.663363 0.5324,-7.317923 0.79883,-10.9765629 0.35804,-4.9166069 2.57728,-7.05964787 4.92188,-6.97265622 z M 455.6543,145.68555 c -0.24518,0.002 -0.8344,0.57007 -1.94336,1.9375 -2.82148,3.47904 -2.05982,4.87272 -0.10156,5.63476 0.93439,-3.61185 2.69429,-7.57696 2.04492,-7.57226 z"
         style="fill:#ffffff;fill-opacity:0"
         id="ee-background"
         inkscape:connector-curvature="0" />
      <g
         id="g3818"
         transform="translate(0.9034553,-208.79645)">
        <path
           id="path3798"
           d="m 33.966439,263.72447 a 13.88,13.88 0 0 1 -13.88,13.88 13.88,13.88 0 0 1 -13.8799996,-13.88 13.88,13.88 0 0 1 13.8799996,-13.88 13.88,13.88 0 0 1 13.88,13.88 z"
           style="fill:url(#b);fill-rule:evenodd;stroke-width:1.20500004"
           inkscape:connector-curvature="0" />
        <g
           id="g3808"
           transform="matrix(0.37897301,0,0,0.37897301,4.9569557,154.22775)"
           word-spacing="0"
           letter-spacing="0"
           font-size="22.777"
           font-weight="400"
           style="font-weight:400;font-size:22.77700043px;line-height:1.25;font-family:'Lily Script One';-inkscape-font-specification:'open sans';letter-spacing:0;word-spacing:0;stroke-width:0.56900001"
           aria-label="lokal">
          <path
             id="path3800"
             style="fill:#ffffff"
             d="m 17.355,286.83 q -1.39,0 -2.187,-0.775 -0.797,-0.797 -0.797,-2.164 0,-0.364 1.23,-10.82 0.319,-2.687 1.708,-3.393 0.638,-0.342 1.526,-0.342 3.007,0 3.007,2.78 0,0.227 -0.023,0.478 -0.228,3.052 -3.827,6.218 -0.113,1.116 -0.25,2.164 -0.273,2.346 -0.273,2.596 0,1.185 1.025,1.185 1.116,0 2.072,-1.276 0.98,-1.298 1.504,-3.303 0.205,0.069 0.569,0.388 0.364,0.296 0.501,0.523 -0.364,1.891 -1.64,3.622 -0.638,0.888 -1.617,1.458 -1.116,0.66 -2.528,0.66 z m 0.888,-10.296 q 2.095,-2.3 2.095,-4.123 0,-1.093 -0.82,-1.093 -0.523,0.046 -0.706,0.683 -0.159,0.638 -0.318,2.073 -0.137,1.435 -0.183,1.777 z"
             inkscape:connector-curvature="0" />
          <path
             id="path3802"
             style="fill:#ffffff"
             d="m 27.255,275.714 q 2.095,0 3.484,1.344 1.413,1.344 1.413,3.28 0,2.938 -1.731,4.715 -1.709,1.754 -4.146,1.754 -2.437,0 -3.872,-1.39 -1.412,-1.39 -1.412,-3.44 0,-2.87 1.754,-4.555 1.776,-1.708 4.51,-1.708 z m -0.456,1.845 q -1.07,0 -1.8,1.23 -0.728,1.23 -0.797,3.098 0,1.32 0.524,2.186 0.547,0.866 1.64,0.866 1.094,0 1.822,-1.207 0.752,-1.208 0.752,-2.756 0,-1.55 -0.524,-2.46 -0.524,-0.957 -1.617,-0.957 z m 16.64,0.911 q 0,2.369 -2.825,3.622 0.068,0.41 0.205,0.98 0.41,1.685 1.367,1.73 h 0.136 q 1.823,0 2.71,-3.211 0.48,0.432 0.912,1.298 -0.319,1.23 -0.911,2.073 -0.57,0.842 -1.253,1.207 -1.207,0.638 -2.278,0.638 -2.505,0 -3.507,-2.802 -0.387,-1.116 -0.524,-2.278 1.298,-0.319 2.05,-1.048 0.751,-0.751 0.751,-1.594 0,-1.458 -1.457,-1.458 -0.797,0 -1.367,0.615 -0.57,0.593 -0.752,1.435 -0.136,1.162 -0.455,3.667 -0.296,2.483 -0.387,3.326 h -3.03 q 1.64,-13.963 1.982,-17.151 0.478,-0.183 1.298,-0.183 1.777,0 1.777,1.048 v 0.137 q -0.456,4.123 -0.843,6.31 1.253,-1.163 3.143,-1.163 1.413,0 2.324,0.73 0.934,0.728 0.934,2.072 z"
             inkscape:connector-curvature="0" />
          <path
             id="path3804"
             style="fill:#ffffff"
             d="m 54.556,286.784 q -2.096,0 -2.779,-1.458 -1.184,1.48 -3.052,1.48 -1.845,0 -3.12,-1.252 -1.253,-1.253 -1.253,-3.303 0,-2.984 1.754,-4.76 1.753,-1.777 4.441,-1.777 h 0.137 q 1.139,0 2.095,0.387 0.615,-0.387 1.48,-0.387 0.89,0 1.276,0.228 -0.205,1.685 -0.432,3.325 -0.228,1.617 -0.32,2.3 -0.204,1.55 -0.204,2.233 0,0.911 0.729,0.911 0.569,0 1.207,-0.752 0.638,-0.774 1.116,-2.414 0.66,0.592 0.911,1.321 -0.66,2.164 -1.777,3.052 -1.116,0.866 -2.209,0.866 z m -3.667,-9.293 q -1.458,0 -2.323,1.116 -0.843,1.093 -1.003,3.28 -0.022,0.205 -0.022,0.387 0,1.116 0.523,1.777 0.547,0.66 1.39,0.66 1.435,0 2.164,-2.027 l 0.546,-4.92 q -0.66,-0.273 -1.275,-0.273 z"
             inkscape:connector-curvature="0" />
          <path
             id="path3806"
             style="fill:#ffffff"
             d="m 59.973,286.83 q -1.39,0 -2.187,-0.775 -0.797,-0.797 -0.797,-2.164 0,-0.364 1.23,-10.82 0.32,-2.687 1.708,-3.393 0.638,-0.342 1.527,-0.342 3.006,0 3.006,2.78 0,0.227 -0.023,0.478 -0.227,3.052 -3.826,6.218 -0.114,1.116 -0.25,2.164 -0.274,2.346 -0.274,2.596 0,1.185 1.025,1.185 1.116,0 2.073,-1.276 0.98,-1.298 1.503,-3.303 0.205,0.069 0.57,0.388 0.364,0.296 0.5,0.523 -0.364,1.891 -1.64,3.622 -0.637,0.888 -1.617,1.458 -1.116,0.66 -2.528,0.66 z m 0.888,-10.296 q 2.096,-2.3 2.096,-4.123 0,-1.093 -0.82,-1.093 -0.524,0.046 -0.706,0.683 -0.16,0.638 -0.32,2.073 -0.136,1.435 -0.181,1.777 z"
             inkscape:connector-curvature="0" />
        </g>
        <g
           id="g3816"
           transform="matrix(0.97454077,0,0,0.97454077,-59.030275,-2.7914672)"
           word-spacing="0"
           letter-spacing="-.61"
           font-size="8.584"
           font-weight="700"
           style="font-weight:700;font-size:8.58399963px;line-height:1.25;font-family:'Rounded Mplus 1c';-inkscape-font-specification:'open sans';letter-spacing:-0.61000001;word-spacing:0;fill:#ffffff;stroke-width:0.20900001"
           aria-label="wirkt">
          <path
             id="path3810"
             style="-inkscape-font-specification:'Rounded Mplus 1c Bold'"
             d="m 71.888,279.559 -0.798,-3.52 q -0.035,-0.18 0.077,-0.326 0.111,-0.146 0.3,-0.146 h 0.43 q 0.214,0 0.369,0.138 0.154,0.137 0.188,0.343 l 0.43,2.858 q 0,0.01 0.008,0.01 0.009,0 0.009,-0.01 l 0.472,-2.858 q 0.034,-0.206 0.189,-0.343 0.154,-0.138 0.369,-0.138 h 0.635 q 0.215,0 0.37,0.138 0.162,0.137 0.197,0.343 l 0.463,2.858 q 0,0.01 0.009,0.01 0.008,0 0.008,-0.01 l 0.43,-2.858 q 0.034,-0.206 0.189,-0.343 0.154,-0.138 0.369,-0.138 h 0.395 q 0.188,0 0.3,0.146 0.12,0.146 0.077,0.326 l -0.798,3.52 q -0.043,0.206 -0.215,0.343 -0.171,0.129 -0.386,0.129 h -0.67 q -0.214,0 -0.377,-0.137 -0.155,-0.138 -0.198,-0.344 l -0.489,-2.772 q 0,-0.01 -0.009,-0.01 -0.008,0 -0.008,0.01 l -0.49,2.772 q -0.034,0.206 -0.197,0.344 -0.163,0.137 -0.378,0.137 h -0.67 q -0.214,0 -0.385,-0.129 -0.172,-0.137 -0.215,-0.343 z m 6.435,0.471 q -0.198,0 -0.344,-0.145 -0.146,-0.146 -0.146,-0.343 v -3.485 q 0,-0.198 0.146,-0.344 0.146,-0.146 0.344,-0.146 h 0.48 q 0.198,0 0.344,0.146 0.146,0.146 0.146,0.344 v 3.485 q 0,0.197 -0.146,0.343 -0.146,0.146 -0.344,0.146 z m 0,-5.321 q -0.198,0 -0.344,-0.146 -0.146,-0.146 -0.146,-0.343 v -0.138 q 0,-0.197 0.146,-0.343 0.146,-0.146 0.344,-0.146 h 0.48 q 0.198,0 0.344,0.146 0.146,0.146 0.146,0.343 v 0.138 q 0,0.197 -0.146,0.343 -0.146,0.146 -0.344,0.146 z m 2.185,5.321 q -0.198,0 -0.344,-0.145 -0.137,-0.146 -0.137,-0.343 v -3.485 q 0,-0.198 0.137,-0.344 0.146,-0.146 0.344,-0.146 h 0.42 q 0.198,0 0.335,0.146 0.146,0.146 0.146,0.344 v 0.36 q 0,0.009 0.009,0.009 0.017,0 0.017,-0.009 0.532,-0.712 1.485,-0.833 0.197,-0.025 0.335,0.12 0.146,0.146 0.146,0.353 v 0.068 q 0,0.198 -0.146,0.344 -0.138,0.146 -0.344,0.163 -0.695,0.077 -1.081,0.48 -0.378,0.395 -0.378,1.03 v 1.4 q 0,0.197 -0.146,0.343 -0.137,0.146 -0.335,0.146 z m 3.775,0 q -0.197,0 -0.343,-0.145 -0.137,-0.146 -0.137,-0.343 v -5.46 q 0,-0.197 0.137,-0.343 0.146,-0.146 0.343,-0.146 h 0.421 q 0.197,0 0.335,0.146 0.146,0.146 0.146,0.343 v 3.168 q 0,0.009 0.008,0.009 l 0.017,-0.01 1.073,-1.304 q 0.31,-0.378 0.79,-0.378 h 0.618 q 0.138,0 0.198,0.129 0.068,0.129 -0.026,0.24 l -1.468,1.726 q -0.043,0.051 0,0.111 l 1.485,1.88 q 0.086,0.12 0.017,0.25 -0.06,0.128 -0.206,0.128 h -0.618 q -0.48,0 -0.78,-0.386 l -1.083,-1.408 q -0.008,-0.01 -0.017,-0.01 -0.008,0 -0.008,0.01 v 1.305 q 0,0.197 -0.146,0.343 -0.138,0.146 -0.335,0.146 z"
             inkscape:connector-curvature="0" />
          <path
             id="path3812"
             style="-inkscape-font-specification:'Rounded Mplus 1c Bold'"
             d="m 88.253,276.709 q -0.197,0 -0.343,-0.137 -0.146,-0.146 -0.146,-0.344 0,-0.197 0.146,-0.343 0.146,-0.146 0.343,-0.146 h 0.344 q 0.068,0 0.068,-0.077 v -1.065 q 0,-0.197 0.146,-0.343 0.146,-0.146 0.344,-0.146 h 0.412 q 0.197,0 0.343,0.146 0.146,0.146 0.146,0.343 v 1.065 q 0,0.077 0.077,0.077 h 0.841 q 0.198,0 0.335,0.146 0.146,0.146 0.146,0.343 0,0.198 -0.146,0.344 -0.137,0.137 -0.335,0.137 h -0.84 q -0.078,0 -0.078,0.077 v 1.468 q 0,0.54 0.094,0.687 0.103,0.146 0.447,0.146 0.18,0 0.283,-0.017 0.189,-0.026 0.335,0.085 0.146,0.112 0.146,0.292 v 0.069 q 0,0.214 -0.138,0.378 -0.137,0.163 -0.352,0.188 -0.266,0.035 -0.618,0.035 -0.875,0 -1.236,-0.37 -0.352,-0.377 -0.352,-1.347 v -1.614 q 0,-0.077 -0.068,-0.077 z"
             inkscape:connector-curvature="0" />
          <path
             id="path3814"
             style="fill:#ffffff;fill-opacity:1;stroke:#000000;stroke-width:0;stroke-opacity:1;paint-order:fill"
             d="M 108.18896,286.36703"
             inkscape:connector-curvature="0" />
        </g>
      </g>
    </g>
  </g>
</svg>
